<svg xmlns="http://www.w3.org/2000/svg" viewBox="0 0 24 24" width="24" height="24">
  <path fill="#fff" d="M12 2C6.48 2 2 6.48 2 12s4.48 10 10 10 10-4.48 10-10S17.52 2 12 2zm5.17 13.76c-.1.15-.21.3-.32.45-.11.15-.24.3-.37.44-.13.14-.27.27-.41.39-.14.12-.29.22-.44.31-.15.09-.31.17-.47.24-.16.07-.32.12-.49.17-.17.05-.34.08-.52.1-.18.02-.36.03-.54.03-.18 0-.36-.01-.54-.03-.18-.02-.35-.05-.52-.1-.17-.05-.33-.1-.49-.17-.16-.07-.32-.15-.47-.24-.15-.09-.3-.19-.44-.31-.14-.12-.28-.25-.41-.39-.13-.14-.26-.29-.37-.44-.11-.15-.22-.3-.32-.45-.1-.15-.19-.31-.27-.47-.08-.16-.15-.33-.21-.5-.06-.17-.1-.35-.13-.53-.03-.18-.05-.37-.05-.56 0-.19.02-.38.05-.56.03-.18.07-.36.13-.53.06-.17.13-.34.21-.5.08-.16.17-.32.27-.47.1-.15.21-.3.32-.45.11-.15.24-.3.37-.44.13-.14.27-.27.41-.39.14-.12.29-.22.44-.31.15-.09.31-.17.47-.24.16-.07.32-.12.49-.17.17-.05.34-.08.52-.1.18-.02.36-.03.54-.03.18 0 .36.01.54.03.18.02.35.05.52.1.17.05.33.1.49.17.16.07.32.15.47.24.15.09.3.19.44.31.14.12.28.25.41.39.13.14.26.29.37.44.11.15.22.3.32.45.1.15.19.31.27.47.08.16.15.33.21.5.06.17.1.35.13.53.03.18.05.37.05.56 0 .19-.02.38-.05.56-.03.18-.07.36-.13.53-.06.17-.13.34-.21.5-.08.16-.17.32-.27.47z"/>
</svg> 